<?xml version="1.0" encoding="UTF-8"?>
<svg xmlns="http://www.w3.org/2000/svg" xmlns:xlink="http://www.w3.org/1999/xlink" width="16px" height="16px" viewBox="0 0 16 16" version="1.1">
<g id="surface1">
<path fill="#6DFF33" style=" stroke:none;fill-rule:nonzero;fill-opacity:1;" d="M 2.667969 1.332031 C 2.136719 1.332031 1.628906 1.542969 1.253906 1.917969 C 0.878906 2.292969 0.667969 2.804688 0.667969 3.332031 L 0.667969 12.667969 C 0.667969 13.195312 0.878906 13.707031 1.253906 14.082031 C 1.628906 14.457031 2.136719 14.667969 2.667969 14.667969 L 13.332031 14.667969 C 13.863281 14.667969 14.371094 14.457031 14.746094 14.082031 C 15.121094 13.707031 15.332031 13.195312 15.332031 12.667969 L 15.332031 5.332031 C 15.332031 4.804688 15.121094 4.292969 14.746094 3.917969 C 14.371094 3.542969 13.863281 3.332031 13.332031 3.332031 L 7.691406 3.332031 L 6.753906 1.925781 C 6.503906 1.554688 6.089844 1.332031 5.644531 1.332031 Z M 2.667969 1.332031 "/>
</g>
</svg>
